<svg width="1080" height="1080" viewBox="0 0 1080 1080" fill="none" xmlns="http://www.w3.org/2000/svg">
<rect width="1080" height="1080" fill="white"/>
<path d="M1063.13 225.925C1077.52 175.678 1080 92 1080 92C1080 92 1060.87 141.692 1042.05 168.529C1018.03 202.781 996.712 213.555 966.155 240.274C861.67 331.635 768.364 323.277 654.134 417.246C624.777 441.396 582.453 484.209 582.453 484.209C582.453 484.209 545.161 530.837 527.639 565.52C513.34 593.823 506.818 610.954 498.124 642.049C491.481 665.803 485.474 704.228 485.474 704.228L481.258 780.757C481.258 780.757 510.387 732.557 531.856 704.228C556.144 672.178 570.453 654.423 599.319 627.7C626.918 602.151 644.085 589.943 675.216 570.303C685.543 563.789 691.423 560.309 702.041 554.428L772.196 512.907C772.196 512.907 885.525 465.764 945.072 412.463L945.797 411.815C970.048 390.108 984.186 377.453 1004.1 350.284C1035.19 307.873 1048.11 278.385 1063.13 225.925Z" fill="url(#paint0_linear_2259_4)"/>
<path d="M178.348 117.046C111.433 95.6782 0 92 0 92C0 92 66.1747 120.411 101.913 148.353C147.527 184.017 161.874 215.681 197.456 261.059C319.122 416.216 307.991 554.776 433.13 724.405C465.29 767.999 522.304 830.85 522.304 830.85C522.304 830.85 584.399 886.229 630.586 912.248C668.277 933.482 691.09 943.167 732.499 956.078C764.133 965.942 810.113 973.303 810.113 973.303L916.39 988.122C916.39 988.122 853.029 937.867 815.303 905.987C772.621 869.918 748.977 848.67 713.39 805.804C679.367 764.821 663.11 739.328 636.956 693.098C628.28 677.764 623.646 669.031 615.814 653.264L560.521 549.085C560.521 549.085 497.741 380.792 426.76 292.366L425.897 291.29C396.99 255.277 380.137 234.282 343.956 204.706C287.478 158.538 248.208 139.354 178.348 117.046Z" fill="url(#paint1_linear_2259_4)"/>
<defs>
<linearGradient id="paint0_linear_2259_4" x1="1080" y1="436.378" x2="481.258" y2="436.378" gradientUnits="userSpaceOnUse">
<stop stop-color="#8CF8A4"/>
<stop offset="1" stop-color="#3378FF"/>
</linearGradient>
<linearGradient id="paint1_linear_2259_4" x1="458.608" y1="92" x2="458.608" y2="981.124" gradientUnits="userSpaceOnUse">
<stop stop-color="#8CF8A4"/>
<stop offset="1" stop-color="#3378FF"/>
</linearGradient>
</defs>
</svg>
